<?xml version="1.0" standalone="no"?><!DOCTYPE svg PUBLIC "-//W3C//DTD SVG 1.1//EN" "http://www.w3.org/Graphics/SVG/1.1/DTD/svg11.dtd"><svg t="1610617933575" class="icon" viewBox="0 0 1025 1024" version="1.1" xmlns="http://www.w3.org/2000/svg" p-id="33820" xmlns:xlink="http://www.w3.org/1999/xlink" width="200.1953125" height="200"><defs><style type="text/css"></style></defs><path d="M658.424668 521.202981v-49.007745h-9.951191v48.259535H571.333041v-48.259535H561.157387v48.259535H484.091773v-48.259535h-10.100833v48.259535H396.55122v-48.259535h-73.997954v4.115154h63.597837v75.269911h-33.519801l2.618735 4.040333H396.55122v-30.526962h117.468947v67.937455h50.878269v77.963466H456.931755v10.998685H564.898436v77.963466H465.162063v-33.519801H531.228993v-10.998685H423.337133V637.474792H531.228993v-10.923864h-50.429344v-67.937454h-50.429344v30.526961H336.694432l-44.892591-71.079935h61.278387v-8.230309h-64.046763v-71.154756h141.33684v48.259535h10.100833v-48.259535h77.140436v48.259535h10.100833v-48.259535h77.140435v48.259535h10.100833v-48.259535H692.094111V463.890107l26.187345-14.964197-10.549759-19.079351H284.319743l15.637586-64.420869 76.691509-76.915972v68.760485h9.801549V283.571533l75.9433-17.582932v91.281602h8.080666V264.043256H546.19319v93.226947h9.352623v-89.785182l76.317405 15.338302v74.147596h8.604413v-70.331726L719.553412 366.622826 695.83516 389.966974l-21.698086-21.847728v22.446295H598.56788V310.507088l-9.352624-1.795704v82.303083h-76.317404V297.563057h-8.978518v93.152126h-74.820985v-82.303083l-8.903698 2.020167v80.282916h-77.065614v-20.949875l-12.644746 12.794388-3.366945 13.991524h400.29227l36.213356 65.468362z m359.514832 76.841152h-86.792342a429.17317 429.17317 0 0 1-62.699986 149.64197c20.276487 20.201666 40.478153 40.328511 61.053924 61.053923a515.591407 515.591407 0 0 1-120.686249 120.536607l-60.081251-61.353208a427.527108 427.527108 0 0 1-150.764284 62.25106v86.717521a516.638901 516.638901 0 0 1-170.367383 0v-86.493058a426.92854 426.92854 0 0 1-150.165717-61.951776l-61.353207 60.979103a515.591407 515.591407 0 0 1-120.536607-119.713576l59.856788-59.333041c-12.794388-25.289493-26.336987-48.783282-36.737104-73.549028S100.933509 625.503434 91.805349 598.56788H7.482098a523.297969 523.297969 0 0 1-0.748209-170.442204h86.6427A423.337133 423.337133 0 0 1 156.001754 276.837644l-61.50285-60.679818a512.598568 512.598568 0 0 1 120.312144-120.76107c20.426129 20.276487 40.627795 40.478153 61.128744 60.979103a421.316966 421.316966 0 0 1 151.213211-62.625165V7.033173a526.515271 526.515271 0 0 1 170.292562 0v86.418237a424.085343 424.085343 0 0 1 151.587315 62.924449l61.203566-60.979103a515.06766 515.06766 0 0 1 119.713576 119.713576c-20.575771 20.351308-40.927079 40.328511-61.428029 60.679819a423.636417 423.636417 0 0 1 62.699986 151.886599h86.6427a529.358469 529.358469 0 0 1 0.224463 170.367383z m-201.34327-86.193775A304.072483 304.072483 0 1 0 512.598568 815.548736a304.072483 304.072483 0 0 0 303.997662-303.698378z" p-id="33821" fill="#13227a"></path></svg>